<svg xmlns="http://www.w3.org/2000/svg" width="16" height="14.42" viewBox="0 0 16 14.42"><defs><style>.a{fill:#fff;}</style></defs><g transform="translate(-9.5 -13.5)"><path class="a" d="M28.8,32.111h5.531a.3.3,0,1,0,0-.591H28.8a.3.3,0,1,0,0,.591Z" transform="translate(-15.247 -14.46)"/><path class="a" d="M31.957,41.488H28.8a.3.3,0,1,0,0,.591h3.161a.3.3,0,1,0,0-.591Z" transform="translate(-15.247 -22.46)"/><path class="a" d="M55.784,52.535a1.28,1.28,0,1,0,1.284,1.28A1.282,1.282,0,0,0,55.784,52.535Zm0,1.969a.689.689,0,1,1,.691-.689A.691.691,0,0,1,55.784,54.5Z" transform="translate(-36.111 -31.324)"/><path class="a" d="M24.71,13.5H10.29a.791.791,0,0,0-.79.787V24.761a.791.791,0,0,0,.79.787h6.873l-.452,1.187h0a.457.457,0,0,0-.032.166.384.384,0,0,0,.123.285.4.4,0,0,0,.275.1.531.531,0,0,0,.087-.008l.738-.132.028.008.013.007.465.588a.463.463,0,0,0,.13.115.394.394,0,0,0,.2.054.379.379,0,0,0,.248-.093.447.447,0,0,0,.126-.183l.616-1.617.616,1.617a.454.454,0,0,0,.126.183.379.379,0,0,0,.248.093.394.394,0,0,0,.2-.054.473.473,0,0,0,.13-.114h0l.465-.587.021-.011.021,0,.739.132a.531.531,0,0,0,.087.008.4.4,0,0,0,.275-.1.386.386,0,0,0,.123-.285.462.462,0,0,0-.031-.164h0l-.452-1.187H24.71a.791.791,0,0,0,.79-.787V14.287a.791.791,0,0,0-.79-.787ZM18.673,27.13l-.267-.337h0a.621.621,0,0,0-.231-.175.681.681,0,0,0-.273-.061.543.543,0,0,0-.1.008l-.424.076.688-1.8a2.854,2.854,0,0,0,1.3.474Zm1-2.393a2.264,2.264,0,1,1,2.272-2.264,2.27,2.27,0,0,1-2.272,2.264ZM16.9,23.18H11.87V15.666H23.13V23.18h-.684a2.864,2.864,0,1,0-5.545,0ZM21.514,27.159Zm.137-.593a.543.543,0,0,0-.1-.008.668.668,0,0,0-.273.061.615.615,0,0,0-.231.176l-.267.337-.7-1.834a2.849,2.849,0,0,0,1.28-.521l.711,1.867Zm3.257-1.8a.2.2,0,0,1-.2.2H22.066l-.234-.613a2.866,2.866,0,0,0,.39-.575h1.3a.2.2,0,0,0,.2-.2v-8.3a.2.2,0,0,0-.2-.2H11.475a.2.2,0,0,0-.2.2v8.3a.2.2,0,0,0,.2.2h5.648a2.876,2.876,0,0,0,.466.659l-.2.529h-7.1a.2.2,0,0,1-.2-.2V14.287a.2.2,0,0,1,.2-.2H24.71a.2.2,0,0,1,.2.2Z"/></g></svg>