<svg xmlns="http://www.w3.org/2000/svg" width="16" height="16" viewBox="0 0 16 16"><g transform="translate(211.09 -28.227)"><path fill="#66d1c2" d="M23.3,2.227H10.523A1.631,1.631,0,0,0,8.91,3.878v12.7a1.631,1.631,0,0,0,1.613,1.652H23.3a1.631,1.631,0,0,0,1.613-1.652V3.878A1.632,1.632,0,0,0,23.3,2.227ZM20.322,8.4l-2.214,4.282a0,0,0,0,0,0,0l-.018.034c-.008.016-.02.026-.028.04a1.872,1.872,0,0,1-.128.206c-.02.026-.045.044-.065.067-.038.042-.075.079-.115.117a1.716,1.716,0,0,1-.2.162,1.388,1.388,0,0,1-.128.081,1.407,1.407,0,0,1-.247.107,1.3,1.3,0,0,1-.124.044,1.554,1.554,0,0,1-.373.053l-.02,0a1.54,1.54,0,0,1-.462-.079,1.063,1.063,0,0,1-.132-.053,1.547,1.547,0,0,1-.16-.063,1.665,1.665,0,0,1-.209-.142c-.01-.008-.022-.01-.034-.018l-1.734-1.4a1.673,1.673,0,0,1-.271-2.319,1.589,1.589,0,0,1,2.265-.279l.217.176,1.329-2.57a1.592,1.592,0,0,1,2.18-.687A1.675,1.675,0,0,1,20.322,8.4Z" transform="translate(-220 26)"/></g></svg>