<svg xmlns="http://www.w3.org/2000/svg" width="26.586" height="28" viewBox="0 0 26.586 28"><defs><style>.a{fill:#ccd9e3;}</style></defs><path class="a" d="M30.94,27.071a7.634,7.634,0,1,0-6.457,0,13.3,13.3,0,0,0-10.065,12.9.57.57,0,0,0,.163.4.558.558,0,0,0,.4.163H40.443a.57.57,0,0,0,.4-.163.558.558,0,0,0,.163-.4,13.3,13.3,0,0,0-10.064-12.9Zm-.778.971-1.6,2.4H26.95l-1.365-2.456A12.28,12.28,0,0,1,27.71,27.8a12.107,12.107,0,0,1,2.452.245Zm-7.056-3.276a6.514,6.514,0,1,1,4.606,1.907A6.491,6.491,0,0,1,23.106,24.766ZM15.553,39.406a12.167,12.167,0,0,1,8.894-11.166l1.583,2.85L24.3,39.408Zm9.889,0,1.635-7.846h1.348l1.961,7.846Zm6.1,0-2.075-8.3,1.846-2.768A12.18,12.18,0,0,1,39.87,39.408Z" transform="translate(-14.418 -12.527)"/></svg>