<svg xmlns="http://www.w3.org/2000/svg" width="16" height="16" viewBox="0 0 16 16"><defs><style>.a{fill:#fff;}</style></defs><path class="a" d="M25.424,12.977l-6.98-5.563a.634.634,0,0,0-.782,0L10.7,12.977a1.617,1.617,0,0,0-.566,1.812,1.787,1.787,0,0,0,1.588,1.167h.441v6.761a.583.583,0,0,0,.6.562h10.59a.583.583,0,0,0,.6-.562v-6.8a1.837,1.837,0,0,0,1.922-.953,1.611,1.611,0,0,0-.458-1.987ZM13.369,22.155V15.281l4.693-3.727,4.693,3.727v6.874ZM24.7,14.626a.62.62,0,0,1-.419.2.63.63,0,0,1-.443-.143l-5.4-4.308h0a.634.634,0,0,0-.782,0l-5.4,4.308a.633.633,0,0,1-.442.131.6.6,0,0,1-.529-.389.539.539,0,0,1,.188-.6l6.579-5.245,6.579,5.245a.549.549,0,0,1,.212.391.538.538,0,0,1-.152.415Z" transform="translate(-10.05 -7.279)"/></svg>