<svg xmlns="http://www.w3.org/2000/svg" width="16.075" height="16" viewBox="0 0 16.075 16"><defs><style>.a{fill:#fff;}</style></defs><g transform="translate(-2.683 -3.125)"><path class="a" d="M10.721,3.125A6.9,6.9,0,0,0,4.686,13.368L2.839,15.217a.53.53,0,0,0,.208.879l2,.667.668,2a.531.531,0,0,0,.879.208l2.294-2.294a6.871,6.871,0,0,0,3.669,0l2.294,2.294a.531.531,0,0,0,.879-.208l.668-2,2-.667a.53.53,0,0,0,.208-.879l-1.848-1.849A6.9,6.9,0,0,0,10.721,3.125Zm0,1.062a5.838,5.838,0,1,1-5.838,5.838,5.83,5.83,0,0,1,5.838-5.838ZM5.286,14.27a6.947,6.947,0,0,0,2.5,2L6.449,17.612l-.48-1.439a.533.533,0,0,0-.335-.335L4.2,15.36Zm10.87,0,1.09,1.09-1.438.479a.533.533,0,0,0-.335.335l-.48,1.439-1.342-1.342a6.948,6.948,0,0,0,2.5-2Z"/><path class="a" d="M25.386,14.109a.532.532,0,0,0-.368.155l-1.164,1.164H22.209a.531.531,0,0,0-.531.531V17.6l-1.164,1.164a.531.531,0,0,0,0,.75l1.164,1.164v1.646a.531.531,0,0,0,.531.531h1.646l1.164,1.164a.532.532,0,0,0,.751,0l1.164-1.164h1.646a.531.531,0,0,0,.531-.531V20.683l1.164-1.164h0a.531.531,0,0,0,0-.75L29.11,17.6V15.958a.531.531,0,0,0-.531-.531H26.933L25.77,14.264a.529.529,0,0,0-.384-.155Zm.008,1.281.944.944h0a.53.53,0,0,0,.375.156h1.335v1.335a.53.53,0,0,0,.155.375l.944.944-.944.944h0a.531.531,0,0,0-.155.376V21.8H26.713a.53.53,0,0,0-.375.155l-.944.944-.944-.944a.53.53,0,0,0-.375-.155H22.74V20.462a.53.53,0,0,0-.155-.375l-.944-.944.944-.944a.53.53,0,0,0,.155-.375V16.489h1.335a.53.53,0,0,0,.375-.155Z" transform="translate(-14.673 -9.118)"/></g></svg>