<svg xmlns="http://www.w3.org/2000/svg" width="16" height="12.308" viewBox="0 0 16 12.308"><defs><style>.a{fill:#fff;}</style></defs><g transform="translate(-9.375 -15.625)"><path class="a" d="M24.76,18.087H22.914V16.24a.615.615,0,0,0-.615-.615H9.99a.615.615,0,0,0-.615.615v8.615a.615.615,0,0,0,.615.615h1.846v1.846a.615.615,0,0,0,.615.615H24.76a.615.615,0,0,0,.615-.615V18.7a.615.615,0,0,0-.615-.615ZM10.606,24.24V16.856H21.683V24.24ZM24.144,26.7H13.067V25.471H22.3a.615.615,0,0,0,.615-.615V19.317h1.231Z"/><path class="a" d="M58.1,25H56.865a.615.615,0,1,0,0,1.231H58.1A.615.615,0,1,0,58.1,25Z" transform="translate(-37.644 -7.529)"/><path class="a" d="M20.6,50H19.365a.615.615,0,1,0,0,1.231H20.6A.615.615,0,1,0,20.6,50Z" transform="translate(-7.529 -27.606)"/><path class="a" d="M37.452,26.846a.615.615,0,0,0,0-1.231h-.615a.615.615,0,1,0-1.231,0H34.99a.615.615,0,0,0-.615.615v1.846a.615.615,0,0,0,.615.615h1.846v.615H34.99a.615.615,0,1,0,0,1.231h.615a.615.615,0,0,0,1.231,0h.615a.615.615,0,0,0,.615-.615V28.077a.615.615,0,0,0-.615-.615H35.606v-.615Z" transform="translate(-20.077 -7.529)"/></g></svg>