<svg xmlns="http://www.w3.org/2000/svg" width="28" height="21.304" viewBox="0 0 28 21.304"><defs><style>.a{fill:#004176;}</style></defs><path class="a" d="M5.826,15A1.836,1.836,0,0,0,4,16.826V35.7a.609.609,0,0,0,.609.609H31.391A.609.609,0,0,0,32,35.7V16.826A1.836,1.836,0,0,0,30.174,15Zm0,1.217H30.174a.594.594,0,0,1,.609.609v3.652H5.217V16.826A.594.594,0,0,1,5.826,16.217Zm1.522,1.217a.913.913,0,1,0,.913.913A.913.913,0,0,0,7.348,17.435Zm2.739,0a.913.913,0,1,0,.913.913A.913.913,0,0,0,10.087,17.435Zm2.739,0a.913.913,0,1,0,.913.913A.913.913,0,0,0,12.826,17.435ZM5.217,21.7H30.783V35.087H5.217Z" transform="translate(-4 -15)"/></svg>